<mxfile host="app.diagrams.net" modified="2023-11-15T00:36:09.794Z" agent="Mozilla/5.0 (X11; Linux x86_64) AppleWebKit/537.36 (KHTML, like Gecko) Chrome/119.0.0.0 Safari/537.36" etag="k_u_ocqwg6elf188WYo6" version="22.1.1" type="device">
  <diagram name="Page-1" id="mU7fKQ8kQI_FDr7Zbmfb">
    <mxGraphModel dx="683" dy="380" grid="1" gridSize="10" guides="1" tooltips="1" connect="1" arrows="1" fold="1" page="1" pageScale="1" pageWidth="850" pageHeight="1100" math="0" shadow="0">
      <root>
        <mxCell id="0" />
        <mxCell id="1" parent="0" />
        <mxCell id="1jOGUPzcPt2LJ2Y506VM-1" value="&lt;b&gt;Waiting&lt;/b&gt;" style="rounded=1;whiteSpace=wrap;html=1;fillColor=#f5f5f5;strokeColor=#000000;fontColor=#333333;dashed=1;dashPattern=1 2;strokeWidth=1;" parent="1" vertex="1">
          <mxGeometry x="360" y="200" width="120" height="40" as="geometry" />
        </mxCell>
        <mxCell id="1jOGUPzcPt2LJ2Y506VM-13" style="edgeStyle=orthogonalEdgeStyle;rounded=0;orthogonalLoop=1;jettySize=auto;html=1;exitX=1;exitY=0.5;exitDx=0;exitDy=0;endArrow=circle;endFill=0;strokeColor=#000000;" parent="1" source="1jOGUPzcPt2LJ2Y506VM-3" edge="1">
          <mxGeometry relative="1" as="geometry">
            <mxPoint x="328" y="270.344827586207" as="targetPoint" />
            <mxPoint x="283" y="270" as="sourcePoint" />
          </mxGeometry>
        </mxCell>
        <mxCell id="Tge8WFex6vPaaeZQfGL3-2" value="" style="edgeStyle=orthogonalEdgeStyle;rounded=0;orthogonalLoop=1;jettySize=auto;html=1;" edge="1" parent="1" source="1jOGUPzcPt2LJ2Y506VM-3" target="Tge8WFex6vPaaeZQfGL3-1">
          <mxGeometry relative="1" as="geometry" />
        </mxCell>
        <mxCell id="1jOGUPzcPt2LJ2Y506VM-3" value="&lt;b&gt;Seller&lt;br&gt;&lt;/b&gt;" style="rounded=1;whiteSpace=wrap;html=1;fillColor=#f5f5f5;strokeColor=#000000;fontColor=#333333;" parent="1" vertex="1">
          <mxGeometry x="160" y="250" width="120" height="40" as="geometry" />
        </mxCell>
        <mxCell id="1jOGUPzcPt2LJ2Y506VM-4" style="edgeStyle=orthogonalEdgeStyle;rounded=0;orthogonalLoop=1;jettySize=auto;html=1;exitX=1;exitY=0.5;exitDx=0;exitDy=0;entryX=0;entryY=0.5;entryDx=0;entryDy=0;endArrow=classicThin;endFill=1;strokeColor=#000000;" parent="1" source="1jOGUPzcPt2LJ2Y506VM-7" edge="1">
          <mxGeometry relative="1" as="geometry">
            <mxPoint x="400" y="270" as="targetPoint" />
            <Array as="points">
              <mxPoint x="380" y="270" />
              <mxPoint x="380" y="270" />
            </Array>
          </mxGeometry>
        </mxCell>
        <mxCell id="1jOGUPzcPt2LJ2Y506VM-6" style="edgeStyle=orthogonalEdgeStyle;rounded=0;orthogonalLoop=1;jettySize=auto;html=1;exitX=1;exitY=0.5;exitDx=0;exitDy=0;endArrow=circle;endFill=0;strokeColor=#000000;" parent="1" source="1jOGUPzcPt2LJ2Y506VM-7" edge="1">
          <mxGeometry relative="1" as="geometry">
            <mxPoint x="528" y="269.66" as="targetPoint" />
            <mxPoint x="448.0000000000002" y="269.66" as="sourcePoint" />
          </mxGeometry>
        </mxCell>
        <mxCell id="1jOGUPzcPt2LJ2Y506VM-14" style="edgeStyle=orthogonalEdgeStyle;rounded=0;orthogonalLoop=1;jettySize=auto;html=1;exitX=0;exitY=0.5;exitDx=0;exitDy=0;endArrow=oval;endFill=1;strokeColor=#000000;" parent="1" source="1jOGUPzcPt2LJ2Y506VM-7" edge="1">
          <mxGeometry relative="1" as="geometry">
            <mxPoint x="320" y="270.344827586207" as="targetPoint" />
          </mxGeometry>
        </mxCell>
        <mxCell id="1jOGUPzcPt2LJ2Y506VM-7" value="&lt;b&gt;Script&lt;/b&gt;" style="rounded=1;whiteSpace=wrap;html=1;strokeColor=#000000;" parent="1" vertex="1">
          <mxGeometry x="360" y="250" width="120" height="40" as="geometry" />
        </mxCell>
        <mxCell id="1jOGUPzcPt2LJ2Y506VM-8" style="edgeStyle=orthogonalEdgeStyle;rounded=0;orthogonalLoop=1;jettySize=auto;html=1;exitX=0.5;exitY=1;exitDx=0;exitDy=0;strokeColor=#000000;" parent="1" source="1jOGUPzcPt2LJ2Y506VM-1" target="1jOGUPzcPt2LJ2Y506VM-1" edge="1">
          <mxGeometry relative="1" as="geometry" />
        </mxCell>
        <mxCell id="1jOGUPzcPt2LJ2Y506VM-9" value="" style="endArrow=classic;html=1;rounded=0;dashed=1;" parent="1" edge="1">
          <mxGeometry width="50" height="50" relative="1" as="geometry">
            <mxPoint x="190" y="160" as="sourcePoint" />
            <mxPoint x="525" y="160" as="targetPoint" />
          </mxGeometry>
        </mxCell>
        <mxCell id="1jOGUPzcPt2LJ2Y506VM-10" value="" style="sketch=0;pointerEvents=1;shadow=0;dashed=0;html=1;strokeColor=none;fillColor=#505050;labelPosition=center;verticalLabelPosition=bottom;verticalAlign=top;outlineConnect=0;align=center;shape=mxgraph.office.concepts.clock;" parent="1" vertex="1">
          <mxGeometry x="160" y="150" width="20" height="20" as="geometry" />
        </mxCell>
        <mxCell id="1jOGUPzcPt2LJ2Y506VM-11" value="-50 ADA" style="rounded=1;whiteSpace=wrap;html=1;strokeWidth=1;dashed=1;dashPattern=1 1;strokeColor=#000000;" parent="1" vertex="1">
          <mxGeometry x="160" y="300" width="120" height="40" as="geometry" />
        </mxCell>
        <mxCell id="1jOGUPzcPt2LJ2Y506VM-12" value="+50 ADA" style="rounded=1;whiteSpace=wrap;html=1;strokeWidth=1;dashed=1;dashPattern=1 1;strokeColor=#000000;" parent="1" vertex="1">
          <mxGeometry x="360" y="300" width="120" height="40" as="geometry" />
        </mxCell>
        <mxCell id="Tge8WFex6vPaaeZQfGL3-1" value="&lt;b&gt;Seller&lt;br&gt;&lt;/b&gt;" style="rounded=1;whiteSpace=wrap;html=1;fillColor=#f5f5f5;strokeColor=#000000;fontColor=#333333;" vertex="1" parent="1">
          <mxGeometry x="360" y="250" width="120" height="40" as="geometry" />
        </mxCell>
      </root>
    </mxGraphModel>
  </diagram>
</mxfile>
